<?xml version="1.0" standalone="no"?><!DOCTYPE svg PUBLIC "-//W3C//DTD SVG 1.1//EN" "http://www.w3.org/Graphics/SVG/1.1/DTD/svg11.dtd"><svg class="icon" width="32px" height="32.00px" viewBox="0 0 1024 1024" version="1.1" xmlns="http://www.w3.org/2000/svg"><path d="M841.5 641.1c0 175.8-147.2 248.4-328.7 248.4C331.2 889.5 184 817 184 641.1c0-175.8 147.2-388.3 328.7-388.3 181.6 0 328.8 212.5 328.8 388.3z" fill="#FFFFFF" /><path d="M512.8 900.4c-212.7 0-339.7-96.9-339.7-259.3 0-180.8 151.5-399.3 339.7-399.3s339.6 218.4 339.6 399.3c0 162.4-126.9 259.3-339.6 259.3z m0-636.7C336.7 263.7 195 470.2 195 641.1c0 214.3 222.3 237.5 317.8 237.5s317.8-23.1 317.8-237.5c0-170.9-141.8-377.4-317.8-377.4z" fill="#7F0518" /><path d="M660.2 160.8c-44.7-71.8-88.2-21.1-97.5-8.7 6.4-15.7 8.3-76.8-51.9-76.8-56.8 0-49.4 56.9-45.7 74.4-12.3-15.3-53.4-56.6-95.5 11.2-50.4 81 96.3 204.7 96.3 204.7 7.5 5.3 14.6 8.6 21.4 10.4 8.3 2.9 19.5 5.6 32.4 5.6 18 0 31.6-7.4 38.8-12.5 1.8-1.1 3.6-2.2 5.5-3.6-0.1 0 146.6-123.8 96.2-204.7z" fill="#FF6A48" /><path d="M519.6 392.5c-12 0-24.1-2.1-36-6.2-7.6-2-16-6-24.1-11.8-7-5.9-154-131.4-99.2-219.4 16.9-27.1 36-41.5 56.9-42.7 13-1.1 25.1 3.8 34.7 10.2 0.5-13.2 3.7-27.8 12.9-39.1 10.3-12.6 25.8-19 46.1-19 30.4 0 46.2 14 54.2 25.8 6.9 10.2 10.2 22.2 11.3 33.5 9.7-6.8 21.8-12.3 35.5-11.4 21.2 0.9 40.5 15.3 57.7 42.8 54.8 88-92.2 213.5-98.5 218.8-2.9 2.1-5 3.4-7.1 4.7-7 4.7-23.1 13.8-44.4 13.8zM420 134c-0.5 0-1.1 0-1.6 0.1-13.4 0.8-26.7 11.7-39.6 32.5-44.8 72 92.7 189.4 94 190.6 5.3 3.7 11.3 6.7 17.2 8.2 7.4 2.5 17.6 5.3 29.6 5.3 15.3 0 27-6.6 32.6-10.5 2.3-1.4 3.9-2.4 5.5-3.5 0.7-0.6 138.2-118 93.3-190-13.1-21-26.5-31.9-40-32.5-18.5-1-34.9 18.6-39.4 24.6-3.3 4.4-9.3 5.6-14.1 3-4.8-2.7-6.8-8.5-4.8-13.6 2.7-6.6 4.9-29.9-5.7-45.7-7.2-10.7-19.3-16.1-36-16.1-13.6 0-23.1 3.6-29.1 11-12.1 14.9-7.6 42.2-5.9 50.2 1 5-1.5 10-6 12.1-4.6 2.1-10 0.9-13.2-3-5.8-7.1-20.1-22.7-36.8-22.7z" fill="#7F0518" /><path d="M530.8 809.8l-0.4-13.2s-6.2 2-15.6 5.9c-9.4-3.9-15.6-5.9-15.6-5.9l-0.4 13.2c-37.2 18.7-91.1 57.2-65.1 116 15.1 34 53.9 28.3 83.3-3.9 4.9 5.3 55.4 56.5 78.7 3.9 26.2-58.8-27.7-97.3-64.9-116z" fill="#FF6A48" /><path d="M566.1 960.3c-19.6 0-38.4-13.8-48.9-23.1-18.5 16.8-39.7 24.9-58.2 21.9-15.6-2.5-28.1-12.8-35.2-28.9-21.5-48.7 1.3-93.7 64.3-127.2l0.2-6.8c0.1-3.4 1.8-6.6 4.6-8.6s6.3-2.6 9.6-1.5c0 0 4.7 1.5 12.2 4.5 7.5-3 12.3-4.5 12.3-4.5 3.2-1 6.8-0.4 9.6 1.5 2.8 2 4.5 5.2 4.6 8.6l0.2 6.8c63 33.5 85.8 78.5 64.3 127.2-9.5 21.5-23.3 27.9-33.3 29.6-2 0.3-4.1 0.5-6.3 0.5z m-49-49.3c3.1 0 6 1.3 8.1 3.6 6.4 7 28.5 26.4 43.8 23.7 2.5-0.4 10.1-1.7 16.8-16.8 21.5-48.5-20.8-82.2-60-101.8-3-1.5-5.1-4.3-5.8-7.5-0.3 0.1-0.7 0.3-1 0.4-2.7 1.1-5.7 1.1-8.5 0-0.3-0.1-0.7-0.3-1-0.4-0.7 3.2-2.8 6-5.8 7.5-39.2 19.6-81.4 53.3-60 101.8 4.2 9.4 10.4 14.8 18.7 16.2 13.7 2.3 31.5-6.6 46.5-23 2.2-2.4 5.2-3.7 8.2-3.7z" fill="#7F0518" /><path d="M662.8 722.5s-38.4-108.4-142.4-108.4-146.1 101.8-146.1 101.8c0.7 2 30.8 131.7 139.9 131.7 95.2-0.1 133.1-83.1 148.6-125.1z" fill="#FFC831" /><path d="M514.2 858.4c-108 0-144.1-115.8-150.2-139.1-0.6-2.3-0.7-5.5 0.3-7.7 1.8-4.4 46.1-108.6 156.2-108.6 110.5 0 152.3 114.6 152.7 115.7 0.9 2.4 0.8 5-0.1 7.4-32.4 87.9-85.8 132.3-158.9 132.3zM385.8 716.8c8.4 28.8 41.5 119.8 128.3 119.8 62 0 108-38.4 136.9-114.1-7.5-18.3-45-97.6-130.7-97.6-85.4 0-126.4 75.2-134.5 91.9z" fill="#7F0518" /><path d="M697 579.1m-54.5 0a54.5 54.5 0 1 0 109 0 54.5 54.5 0 1 0-109 0Z" fill="#7F0518" /><path d="M683.3 568m-25.1 0a25.1 25.1 0 1 0 50.2 0 25.1 25.1 0 1 0-50.2 0Z" fill="#FFFFFF" /><path d="M715.4 604.6m-11.5 0a11.5 11.5 0 1 0 23 0 11.5 11.5 0 1 0-23 0Z" fill="#FFFFFF" /><path d="M329 579.1m-54.5 0a54.5 54.5 0 1 0 109 0 54.5 54.5 0 1 0-109 0Z" fill="#7F0518" /><path d="M315.3 568m-25.1 0a25.1 25.1 0 1 0 50.2 0 25.1 25.1 0 1 0-50.2 0Z" fill="#FFFFFF" /><path d="M347.5 604.6m-11.5 0a11.5 11.5 0 1 0 23 0 11.5 11.5 0 1 0-23 0Z" fill="#FFFFFF" /><path d="M726.9 464.4c-2.6 0-5.3-1-7.4-2.9-10.2-9.3-20.2-14-29.7-13.1-13.7 0.9-23.1 11.9-23.2 12.1-3.9 4.6-10.8 5.3-15.3 1.4-4.6-3.8-5.3-10.6-1.6-15.3 0.6-0.7 15.1-18.3 38.4-20 15.9-1 31.4 5.2 46.3 18.8 4.4 4.1 4.7 11 0.7 15.4-2.3 2.5-5.3 3.6-8.2 3.6z" fill="#7F0518" /><path d="M301.6 464.4c-2.4 0-4.9-0.8-6.9-2.4-4.7-3.8-5.4-10.7-1.6-15.4 0.6-0.7 15.2-18.3 38.4-20 15.8-1 31.4 5.2 46.2 18.8 4.4 4.1 4.7 11 0.6 15.4-4 4.5-11 4.7-15.4 0.6-10.2-9.4-20.3-14-29.9-13.1-13.7 1-22.9 11.9-23 12-2.1 2.8-5.2 4.1-8.4 4.1z" fill="#7F0518" /><path d="M518.9 771c-70.7 0-123.5-34.6-124.3-35.1-5-3.4-6.3-10.1-3-15.1 3.4-5 10.1-6.4 15.1-3 4.4 2.9 108.1 70.4 216.2-0.1 5-3.3 11.8-1.9 15.1 3.2 3.3 5.1 1.8 11.8-3.2 15.1-40.2 26.3-80.4 35-115.9 35z" fill="#7F0518" /></svg>